<svg xmlns="http://www.w3.org/2000/svg" fill-rule="evenodd" stroke-linejoin="round" stroke-miterlimit="2" clip-rule="evenodd" viewBox="0 0 961 600">
  <defs/>
  <g filter="url(#_Effect1)" transform="matrix(1 0 0 -1 1080 -91)">
    <path d="M-1000-641.001h800v500h-800z"/>
  </g>
  <path fill="#006aa7" d="M80 49h800v500H80z"/>
  <path fill="#fecc00" d="M330 49h100v500H330z"/>
  <path fill="#fecc00" d="M80 249h800v100H80z"/>
  <path fill="url(#_Radial2)" fill-rule="nonzero" d="M-1200 600.001c0 21.943-18.06 40-40 40v-20c10.97 0 20-9.029 20-20h20z" transform="translate(2080 -91)"/>
  <path fill="url(#_Linear3)" d="M-1220 180.001h20v420h-20z" transform="translate(2080 -91)"/>
  <path fill="url(#_Linear4)" d="M-1960 620.001h720v20h-720z" transform="translate(2080 -91)"/>
  <path fill="url(#_Radial5)" fill-rule="nonzero" d="M-2000 600.001c0 21.943 18.06 40 40 40v-20c-10.97 0-20-9.029-20-20h-20z" transform="translate(2080 -91)"/>
  <path fill="url(#_Linear6)" d="M1980 180.001h20v420h-20z" transform="matrix(-1 0 0 1 2080 -91)"/>
  <path fill="url(#_Linear7)" d="M-1960-160.001h720v20h-720z" transform="matrix(1 0 0 -1 2080 -91)"/>
  <path fill="url(#_Radial8)" fill-rule="nonzero" d="M-1200 180.001c0-21.944-18.06-40-40-40v20c10.97 0 20 9.028 20 20h20z" transform="translate(2080 -91)"/>
  <path fill="url(#_Radial9)" fill-rule="nonzero" d="M-2000 180.001c0-21.944 18.06-40 40-40v20c-10.97 0-20 9.028-20 20h-20z" transform="translate(2080 -91)"/>
  <path fill="url(#_Linear10)" d="M-1980-620.001h760v460h-760z" transform="matrix(1 0 0 -1 2080 -91)"/>
  <g>
    <path fill="#1f1a17" d="M594.66 349.19h205.319v30.123c-69.03 10.958-81.307 34.05-81.946 54.521-.492 15.81.129 34.929 35.325 53.547v16.65h-42.94c-.618-15.33-13.351-27.677-28.83-27.677h-17.012c-15.482 0-28.217 12.348-28.837 27.677h-48.678v-17.355c24.807-7.521 33.202-19.122 31.712-31.152-1.076-8.68-3.613-22.412-12.555-30.174-11.49-9.983-31.158-13.249-46.377-16.51-33.378-7.15-75.341-13.538-87.45-49.274h107.83v-2.222h14.43v-8.152l.009-.002zm-102.11 19.267c23.415 14.162 50.763 23.62 85.275 24.443 8.694.31 8.878 11.73 0 11.485-41.283-2.94-67.176-16.69-85.275-35.928zm138.945-189.06l1.696.87 1.293-2.512 6.296-12.275c2.9-5.641 8.965-8.361 13.48-6.043l23.6 12.117c4.515 2.317 5.838 8.828 2.94 14.474l-6.293 12.272-1.292 2.52 157.428 80.81c3.443 1.76 4.894 5.86 3.222 9.111l-3.166 6.176c-1.67 3.248-5.851 4.455-9.289 2.685l-157.425-80.805-7.59 14.78-5.175 10.086c-.05.102-.183.135-.297.074l-8.006-4.11-23.603-12.114-8.005-4.106c-.112-.058-.166-.188-.112-.288l5.175-10.085 7.584-14.781-1.692-.87c-3.438-1.764-4.894-5.867-3.228-9.115l3.177-6.18c1.66-3.248 5.835-4.456 9.28-2.69h.002z"/>
  </g>
  <g>
    <g transform="matrix(.3208 0 0 .3208 596.358 248.664)">
      <clipPath id="a">
        <path d="M0 0h272.33v313.39H0z"/>
      </clipPath>
      <g clip-path="url(#a)">
        <path fill="#d00000" fill-rule="nonzero" d="M133.24 0c-.57.019-1.226.228-1.585.732L50.982 97.259c-1.343 1.68-1.433 2.055.366 2.073l161.59-.427c2.22-.181 2.23-.07.792-1.951L134.459.427c-.164-.256-.649-.441-1.219-.427zm15.488 8.598l72.746 88.478c.974 1.182 1.212 1.249 2.927.427l38.355-17.562c2.512-1.134 2.164-1.366.488-2.5l-114.53-68.85.014.007zm-33.964 3.232c-.034-.073-.625.37-1.951 1.28L7.203 82.624l33.05 15c1.724.569 2.239.599 3.353-.793l69.697-83.234c.983-1.136 1.496-1.696 1.464-1.768l-.003.001zm33.416 35.245c4.668 0 8.406 1.609 11.159 4.817 2.752 3.192 4.305 7.752 4.695 13.659.39 5.891-.598 10.451-2.927 13.659-2.329 3.192-5.819 4.756-10.488 4.756-4.684 0-8.407-1.564-11.159-4.756-2.752-3.208-4.305-7.768-4.695-13.659-.39-5.907.597-10.467 2.927-13.659 2.329-3.208 5.804-4.817 10.488-4.817zm-30.672.365c4.256.001 7.447.932 9.512 2.805 2.082 1.874 2.826 4.455 2.318 7.806-.294 1.937-1.062 3.743-2.318 5.427-1.253 1.667-3.683 3.957-7.317 6.768l-8.597 6.647h15.61l-.976 6.707H99.886l1.036-6.707 14.696-11.464c1.319-1.048 2.342-2.049 3.049-3.049a7.395 7.395 0 001.281-3.171c.253-1.667-.065-3.008-1.037-4.025-.957-1.016-2.41-1.524-4.268-1.524-1.43 0-3.025.356-4.818.976-1.79.603-3.733 1.476-5.854 2.683l1.159-7.805a47.025 47.025 0 016.342-1.525 35.009 35.009 0 016.036-.549zm31.099 5.915c-1.969 0-3.304.918-4.025 2.744-.722 1.811-.964 4.945-.67 9.391.297 4.494.927 7.609 1.89 9.451.963 1.842 2.421 2.805 4.39 2.805 1.954 0 3.305-.963 4.025-2.805.72-1.842.968-4.957.671-9.451-.294-4.446-.93-7.58-1.891-9.391-.946-1.826-2.421-2.744-4.39-2.744zm-87.686 4.939c.845 0 1.439.212 1.707.671.531.914-.14 2.694-1.951 5.427-1.816 2.743-3.903 5.075-6.281 6.952a25.483 25.483 0 01-7.866 4.207c-1.845.602-3.117.76-3.841.427-.73-.338-.899-1.182-.488-2.439-1.374 1.453-2.81 2.714-4.329 3.719-1.52 1.006-3.068 1.787-4.696 2.318-2.421.789-3.88.732-4.268-.184-.389-.915.308-2.671 2.012-5.244 1.692-2.554 3.583-4.721 5.732-6.464a21.372 21.372 0 016.891-3.78c1.627-.531 2.762-.671 3.414-.366.659.295.812 1.024.488 2.134 1.487-1.608 3.059-2.963 4.756-4.085 1.692-1.128 3.46-2.021 5.305-2.622 1.423-.464 2.57-.669 3.415-.671zm162.75 1.464c1.452 1.215 2.793 2.471 4.024 3.658 1.241 1.188 2.368 2.334 3.354 3.476 2.166 2.51 3.318 4.461 3.415 5.854.105 1.403-.839 2.121-2.805 2.134-1.137 0-2.466-.331-3.964-.914-1.488-.584-3.852-1.779-7.134-3.659l-7.805-4.452 7.988 9.208-3.963.061L203.61 59.88l3.963-.061 13.354 7.622c1.205.68 2.24 1.201 3.11 1.525.87.324 1.622.492 2.256.488.978 0 1.441-.368 1.464-1.037.031-.659-.396-1.526-1.342-2.622-.727-.843-1.699-1.805-2.927-2.805-1.219-.999-2.696-2.033-4.39-3.171l4.573-.06v-.001zm-168.18 4.085a8.22 8.22 0 00-1.769.366 14.012 14.012 0 00-3.78 1.891c-1.112.783-2.015 1.674-2.683 2.683-.674 1.018-.821 1.712-.427 2.012.394.3 1.335.216 2.744-.244a13.992 13.992 0 003.781-1.89 10.564 10.564 0 002.683-2.744c.668-1.009.814-1.657.427-1.952-.201-.144-.524-.164-.976-.121v-.001zm-13.232 4.635c-.362.027-.832.119-1.402.305-1.141.372-2.141.927-3.049 1.585-.921.662-1.695 1.408-2.257 2.256-.574.867-.729 1.437-.426 1.708.309.261 1.067.185 2.195-.184a10.904 10.904 0 003.049-1.524 9.047 9.047 0 002.256-2.317c.561-.849.736-1.385.427-1.647-.155-.13-.431-.21-.793-.183v.001zm226.1 15.61c-.328.023-.846.212-1.646.548l-39.391 17.988c-1.399.635-1.311 1.491-.793 2.562l45.794 116.16-3.293-135.31c-.101-1.48-.123-1.991-.671-1.952v.004zM4.209 87.685L.002 219.335l38.782-113.91c.572-1.682.559-1.767-.61-2.317L4.21 87.681l-.001.004zm210.86 17.074l-165.25.427c-2.362-.035-2.264-.033-1.097 1.891l83.905 141.53c1.417 2.159 1.265 2.091 2.744-.121l80.612-141.77c.705-1.127 1.21-1.914-.915-1.952l.001-.005zm6.586 3.72c-.153.065-.319.638-.793 1.524l-81.161 142.81c-.886 1.508-1.096 2.048 1.037 1.708l128.85-17.744c2.043-.467 1.981-1.197 1.28-3.232l-48.62-123.48c-.321-1.183-.457-1.649-.609-1.585l.016-.001zm-178.18 1.342c-.158.113-.301.715-.61 1.585l-41.16 121.16c-.701 2.574-.78 3.541 1.829 4.024l123.11 17.805c2.328.35 2.03-.822 1.463-1.951l-83.79-141.34c-.527-1.068-.696-1.394-.853-1.28l.011-.003zm224.03 1.585l.244 5.061-4.147 2.683.976 18.354 4.146-4.086.305 5.001-4.207 4.024-4.452 2.866-1.219-23.354-1.952 1.22.061 1.463a7.593 7.593 0 00-2.683.121 8.245 8.245 0 00-2.561 1.098c-1.244.79-2.182 1.714-2.805 2.805a6.302 6.302 0 00-.854 3.536c.066 1.294.442 2.031 1.159 2.257.709.243 1.724-.02 3.048-.854l1.891-1.22.244 4.757-1.952 1.219c-1.178.749-2.074 1.624-2.622 2.561-.547.95-.792 1.991-.731 3.171.056 1.091.384 1.772.975 2.012.592.24 1.415.041 2.439-.609.756-.481 1.498-1.134 2.257-1.891a22.461 22.461 0 002.256-2.622l.244 5.366a31.512 31.512 0 01-2.683 2.622 22.6 22.6 0 01-2.683 2.013c-2.366 1.502-4.133 2.059-5.366 1.585-1.241-.456-1.948-1.894-2.074-4.329-.085-1.662.104-3.213.61-4.635a10.9 10.9 0 012.378-3.841c-1.252.285-2.229.035-2.926-.793-.705-.81-1.062-2.135-1.159-4.025-.145-2.815.401-5.394 1.707-7.744 1.307-2.336 3.326-4.353 5.976-6.036.935-.594 1.85-1.106 2.805-1.464.195-.076.412-.117.61-.183l.06-.061 12.683-8.049.002.001zm-259.82 9.878c.621-.041 1.273.162 2.012.61 1.628.986 2.82 2.836 3.536 5.549.046.172.082.372.121.549l.244-3.232 8.781 5.305-.366 4.451-2.866-1.707-1.28 15.976 2.988.61-.305 4.329-3.049-.549-3.049-1.89 1.646-20.366-2.5-1.463c.375 2.335.498 5.026.244 8.109-.337 4.098-1.145 6.953-2.378 8.659-1.239 1.714-2.755 2.017-4.573.915a9.479 9.479 0 01-1.646-1.281 14.16 14.16 0 01-1.586-1.768l.366-4.573a14.08 14.08 0 001.463 2.012c.45.529.894.949 1.342 1.22.962.583 1.753.494 2.378-.244.624-.727 1.02-2.119 1.281-4.147-.414.319-.828.483-1.281.488-.454.02-.954-.119-1.463-.427-1.282-.776-2.205-2.127-2.866-4.085-.667-1.962-.93-4.183-.732-6.586.218-2.658.819-4.536 1.829-5.61.505-.531 1.086-.811 1.708-.853l.001-.001zm.914 4.452c-.227.05-.44.212-.61.487-.345.558-.551 1.538-.67 2.988-.119 1.451-.104 2.644.121 3.537.219.9.649 1.545 1.219 1.89.565.343.996.193 1.342-.366.339-.55.551-1.537.67-2.987.119-1.451.098-2.637-.121-3.537-.226-.893-.593-1.487-1.158-1.829-.286-.174-.565-.235-.793-.184v.001zm96.832 9.024h8.659v6.464h15.793v7.866l-14.269 21.22h-10.183v-22.44h-5.061v-6.647h5.061v-6.463zm30.001 0h24.818v6.342h-8.049v22.989l8.293-1.708v6.22l-8.293 1.708h-8.72v-29.208h-8.049v-6.343zm-21.342 13.11v14.939l10.061-14.939H114.09zm-61.282 26.891l5.732 7.805-2.683 1.769c.414.093.797.164 1.219.304 3.368 1.136 6.466 3.648 9.269 7.44 3.089 4.18 4.335 8.129 3.72 11.952-.639 3.815-3.116 7.132-7.379 9.939-4.369 2.877-8.765 3.836-13.232 2.805-4.488-1.038-8.44-3.929-11.891-8.598-1.093-1.479-2.086-2.933-2.927-4.451a38.835 38.835 0 01-2.195-4.696l4.878-3.231a29.598 29.598 0 001.708 4.634c.632 1.378 1.346 2.632 2.195 3.781 1.826 2.47 3.823 4.001 5.976 4.634 2.141.64 4.378.378 6.768-.854-1.279-.567-2.436-1.337-3.536-2.256-1.113-.912-2.144-2.047-3.11-3.354-2.432-3.289-3.633-6.459-3.537-9.512.086-3.067 1.401-5.448 3.964-7.135a11.004 11.004 0 012.195-1.097l-3.964-5.366 6.83-4.513zm155.61 11.281l6.646 5.122 10.61 24.879-5.305 7.866-19.147-14.635-2.622 3.903-5.671-4.329 2.683-3.964-5.549-4.207 4.574-6.708 5.488 4.268 8.293-12.195zm-151.04 6.159c-1.033.068-2.133.516-3.293 1.28-1.547 1.019-2.396 2.116-2.622 3.354-.248 1.231.137 2.62 1.22 4.086 1.072 1.45 2.277 2.28 3.597 2.5 1.299.213 2.722-.201 4.269-1.22 1.547-1.018 2.434-2.122 2.683-3.354.226-1.237-.148-2.634-1.22-4.085-1.083-1.465-2.299-2.287-3.597-2.5a4.59 4.59 0 00-1.037-.061zm153.66 2.622l-5.244 7.744 12.683 9.756-7.439-17.5zm-199.58 48.843l120.8 68.539c1.564.948 1.93.602 1.707-1.037l-2.561-48.05c-.069-1.55-.28-2.182-1.89-2.439l-118.05-17.013h-.006zm249.76.121l-122.63 16.952c-1.618.238-1.326 1.033-1.341 2.195l2.622 48.904c.134 1.484.091 2.016 1.89 1.098l119.46-69.149h-.001zm-76.771 21.098l8.964 9.939 7.012-4.146 1.951 2.195-18.415 10.915-2.987 1.769-18.415 10.915-1.952-2.135 7.013-4.146-7.135-7.805-6.585 4.817-1.951-2.134 6.585-4.756 7.5-4.452 9.025 9.94 3.964-2.379 2.987-1.768 3.964-2.378-7.073-7.805-6.647 4.817-1.89-2.134 6.585-4.817 7.501-4.452h-.001zm-80.612 1.463c2.373.108 4.515.928 6.525 2.439 2.231 1.678 3.176 3.488 2.805 5.488-.371 2.001-2.027 4.001-4.939 5.976a18.83 18.83 0 01-5.305 2.5l2.073 1.586-4.696 3.171-4.146-3.11 1.524-1.037c-2.597-.17-4.942-1.02-7.073-2.622-.802-.603-1.53-1.19-2.134-1.829a13.329 13.329 0 01-1.586-2.012l3.354-2.257a10.48 10.48 0 001.22 2.013c.472.598 1.02 1.175 1.646 1.646 1.314.988 2.766 1.494 4.268 1.524 1.511.025 3.045-.468 4.696-1.402-.924-.116-1.771-.304-2.561-.61a8.954 8.954 0 01-2.195-1.219c-1.75-1.316-2.621-2.79-2.622-4.33.019-1.539.919-2.889 2.682-4.085 1.95-1.323 4.099-1.93 6.464-1.83zm1.037 3.659c-.924.069-1.876.445-2.927 1.159-1.06.719-1.685 1.418-1.829 2.073-.137.65.203 1.249.975 1.829.772.581 1.585.857 2.5.793.924-.07 1.928-.501 2.988-1.22 1.052-.713 1.624-1.357 1.768-2.012.145-.655-.142-1.31-.914-1.89-.772-.58-1.638-.801-2.561-.732z"/>
      </g>
    </g>
  </g>
  <defs>
    <linearGradient id="_Linear3" x1="0" x2="1" y1="0" y2="0" gradientTransform="matrix(20 0 0 20 -1220 390.001)" gradientUnits="userSpaceOnUse">
      <stop offset="0" stop-opacity="0"/>
      <stop offset="1" stop-opacity=".6"/>
    </linearGradient>
    <linearGradient id="_Linear4" x1="0" x2="1" y1="0" y2="0" gradientTransform="rotate(90 -1105 -485) scale(20)" gradientUnits="userSpaceOnUse">
      <stop offset="0" stop-opacity="0"/>
      <stop offset="1" stop-opacity=".6"/>
    </linearGradient>
    <linearGradient id="_Linear6" x1="0" x2="1" y1="0" y2="0" gradientTransform="matrix(20 0 0 20 1980 390.001)" gradientUnits="userSpaceOnUse">
      <stop offset="0" stop-opacity="0"/>
      <stop offset="1" stop-opacity=".6"/>
    </linearGradient>
    <linearGradient id="_Linear7" x1="0" x2="1" y1="0" y2="0" gradientTransform="rotate(90 -715 -875) scale(20)" gradientUnits="userSpaceOnUse">
      <stop offset="0" stop-opacity="0"/>
      <stop offset="1" stop-opacity=".6"/>
    </linearGradient>
    <linearGradient id="_Linear10" x1="0" x2="1" y1="0" y2="0" gradientTransform="matrix(510 -478.775 478.775 510 -1950 -150.613)" gradientUnits="userSpaceOnUse">
      <stop offset="0" stop-color="#fff" stop-opacity=".3"/>
      <stop offset="1" stop-color="#fff" stop-opacity="0"/>
    </linearGradient>
    <radialGradient id="_Radial2" cx="0" cy="0" r="1" gradientTransform="matrix(-40 0 0 40 -1240 600.002)" gradientUnits="userSpaceOnUse">
      <stop offset="0" stop-opacity="0"/>
      <stop offset=".5" stop-opacity="0"/>
      <stop offset="1" stop-opacity=".6"/>
    </radialGradient>
    <radialGradient id="_Radial5" cx="0" cy="0" r="1" gradientTransform="matrix(40 0 0 40 -1960 600.002)" gradientUnits="userSpaceOnUse">
      <stop offset="0" stop-opacity="0"/>
      <stop offset=".5" stop-opacity="0"/>
      <stop offset="1" stop-opacity=".6"/>
    </radialGradient>
    <radialGradient id="_Radial8" cx="0" cy="0" r="1" gradientTransform="rotate(180 -620 90) scale(40)" gradientUnits="userSpaceOnUse">
      <stop offset="0" stop-opacity="0"/>
      <stop offset=".5" stop-opacity="0"/>
      <stop offset="1" stop-opacity=".6"/>
    </radialGradient>
    <radialGradient id="_Radial9" cx="0" cy="0" r="1" gradientTransform="matrix(40 0 0 -40 -1960 180)" gradientUnits="userSpaceOnUse">
      <stop offset="0" stop-opacity="0"/>
      <stop offset=".5" stop-opacity="0"/>
      <stop offset="1" stop-opacity=".6"/>
    </radialGradient>
    <filter id="_Effect1" width="824" height="524" x="-1012" y="-653.001" filterUnits="userSpaceOnUse">
      <feGaussianBlur in="SourceGraphic" stdDeviation="2"/>
    </filter>
  </defs>
</svg>
